<?xml version="1.0" encoding="UTF-8"?>
<svg id="Layer_2" data-name="Layer 2" xmlns="http://www.w3.org/2000/svg" viewBox="0 0 453.38 258.62">
  <defs>
    <style>
      .cls-1 {
        fill: none;
      }
    </style>
  </defs>
  <g id="Layer_1-2" data-name="Layer 1">
    <g>
      <rect class="cls-1" width="453.38" height="258.62"/>
      <g>
        <path d="M206.25,130.47c-.85-.1-1.62-.77-2.22-.88-.44-.08-.78.22-1.2.05-.14-.58-.57-1.36-.52-1.94.07-.86,2.03-1.17,2.46-1.92.16-.28.32-1.81.59-1.88,1.46-.36,1.18,1.75,2.23,2,.41.1.92.17,1.17-.25.26-.44.09-2.64.12-3.36.05-1.88-.09-3.31-.13-5.13-.06-2.87.34-6.69,0-9.39-.12-.96-1.03-2.2-1.15-2.96-.18-1.13-.22-3.49-.27-4.74-.18-4.64.72-9.42.4-14.03-.07-1.06-.8-2.84.03-3.75.11-.12,1.3-.68,1.45-.68.55-.03,1.43,1.25,1.54,1.79.17.83.02,1.9.05,2.78.25,6.35.04,12.77.01,19.16,0,2.27.04,4.56,0,6.81-.02,1.25-.33,1.99-.39,2.95-.05.73.29,1.72.32,2.58.05,1.44-.05,2.94-.05,4.37,0,1.31.03,2.63-.08,3.93.19.63.98.41,1.4.54.61.19.95.54,1.7.61,1.79.18,3.93.13,5.78.26.9.06,3.65.74,3.99-.38.31-1-.04-3.47.06-4.7.17-1.96.59-3.83.65-5.91.08-3.08-.38-6.18.03-9.23.06-.43.29-.9.34-1.33.18-1.61-.55-3.6-.36-5.25.14-1.19.22-.81,0-2.07-.13-.75.28-1.35.26-2.05-.01-.55-.32-.86-.39-1.29-.1-.66.05-1.49,0-2.18-.4-4.32-.88-8.62-.78-12.99-.11-.73,1.03-1.76,1.67-1.54.14.05.97.69,1.11.83,1.08,1.11.61,2.41.7,3.8.07,1.06.21,1.96.25,3.09.17,5.29-.17,11.11-.26,16.45-.03,1.82.21,4.2,0,5.92-.05.46-.38.82-.4,1.29-.01.5.32.99.34,1.52.04,1.05-.28,2.32-.34,3.37-.07,1.41.05,2.83-.13,4.24-.11.82-.62,2.14-.62,2.83,0,.84.12,1.68.1,2.69-.01.77-.29,2.4.58,2.52,1.16.15,3.77.12,5.02.1,2.26-.05,4.7-.71,6.81-.75.64-.01,1.37.3,1.92.26.38-.03.97-.31,1.44-.37,1.51-.17,3.06-.03,4.47-.16.75-.07,1.56-.43,2.33-.5.92-.08,2.07.24,2.82.12.41-.06,1.49-.85,1.82-.39.25.28-.66,1.74-.8,1.79-.27.09-.66-.02-.98.05-1.67.35-3.44.68-5.17.87-.49.05-2.81.06-3.02.19-.13.08-.15.18-.13.32,1.2.39,2.27,1.41,3.5,1.71,3.71.92,12.24-1.25,16.37-1.85.4-.06.82-.53,1.24-.06.8.89-1,1.75-1.67,1.94-.94.26-2.28.44-3.32.67-2.51.56-5.19.98-7.65,1.61-.52.13-.99.5-1.48.58-.96.16-1.72-.19-2.65.44s-.61,1.43-.78,2.3c-.26,1.26-2.15,4.74-3.03,5.71-1.03,1.14-3.27,2.4-4.82,2.39-.72,0-2.32-.78-2.74-1.38-1.48-2.08-.58-5.38-.41-7.71.02-.28-.12-.5-.11-.74.03-.81.97-1.29,1.47-1.87.41-.47.82-1.19,1.23-1.6.57-.55,1.49-1.15,2.11-1.75.13-.12.24-.17.19-.38l-5.46.26c-1.25.47-2.5.26-3.73.38-.69.07-5.13.53-5.34.7-.26.31-.08.77-.13,1.16-.36,2.78-.26,5.43-.26,8.23,0,4.45-.12,8.92-.13,13.36,0,1.58.37,4.38-.06,5.72-.37,1.14-1.3,2.41-2.45,1.17-.07-.08-.94-1.65-.96-1.74-.08-.41.04-.94-.02-1.4-.12-.9-.49-1.82-.61-2.73-.62-4.89-.71-13.92-3.56-17.91-.31-.44-.8-.62-1.09-.97-.36-.44-.67-1.26-1.05-1.78-.25-.35-2.25-2.53-2.49-2.53h-2.31c-.1,0-.29.39-.29.56.01.41.48.86.49,1.31,0,.55-.4,1.73-.39,2.44s.34,1.48.26,2.32c-.06.54-.46.95-.48,1.3-.02.42.46,1.1.46,1.52s-.47,1.16-.49,1.68c-.04,1.36.3,2.98.25,4.36-.04,1.25-.61,2.62-.64,3.74-.03,1.19.36,2.57.25,3.97-.05.73-.38,1.6-.39,2.31-.02,1.05.13,2.21.12,3.34-.04,5.17-.07,10.26,0,15.44.01.86.24,1.77.13,2.7-.07.62-.55,2.77-1.33,2.73-1.33-.07-1.67-2.14-1.41-3.16.12-.47.53-.89.56-1.38s-.23-1.01-.27-1.54c-.22-3.23.26-6.34.4-9.51.24-5.75.2-11.5.5-17.24.09-1.72.13-3.03.13-4.75-.01-3.5.46-7.07.26-10.55-.02-.29.1-1.61-.19-1.61-.74-.06-1.59.09-2.31,0ZM222.89,129.97c-.45-.13-.78.19-1.2.24-.95.11-2.24-.05-3.22.13-1.04.19.47,1.96.64,2.56.25.86.31,2.05.68,2.92l2.79,3.89c.29.05.18-.13.19-.32.19-2.8.47-5.96.26-8.75-.02-.24-.04-.47-.15-.69ZM240.88,132.55c-1.22.18-1.88,2.06-1.9,3.13,0,.56.59,3.92.9,4.24.09.1.18.19.33.19.22,0,.44-.3.56-.47.6-.89,2.32-4.56,2.31-5.51s-1.29-1.71-2.2-1.58Z"/>
        <path d="M154.62,117.23c.52,0,.95-.22,1.47-.26,1.66-.13,4.86.65,6.42,1.31.8.33,5.11,3.37,5.54,3.97,4.48,6.25,6.64,12.92,3.14,20.35-1.44,3.05-4.97,6.31-8.18,7.37-2.88.95-7.74,1.33-10.61.39-4.15-1.35-7.68-3.28-7.81-8.14-.02-.77,1.36-3.98,1.83-4.72.23-.36,1.27-1.54,1.61-1.61,1.6-.34.69,2.09.58,2.78-.49,3.11-.4,5.32,2.22,7.35,1.32,1.03,2.99,1.87,4.65,2.16s2.8.47,4.44.26c1.76-.24,5.04-.78,6.33-1.9.51-.44,1.73-1.54,2.12-1.99,2.08-2.4,2.49-5.83,2.45-8.86-.01-.92-.43-1.5-.61-2.23-1.1-4.53-1.51-6.47-4.86-9.93-2.54-2.63-7.53-4.22-11.16-3.69-1.84.27-4.65,2.87-6.28,2.61-.75-.12-.7-.67-.19-1.1,1.54-1.3,3.45-2.17,4.67-3.81.73-.97.88-1.51,1.76-2.48.55-.6.53-1.28.87-1.96,2.62-5.3,4.5-10.52,5.23-16.38.1-.85-.21-1.13-.34-1.83-.69-3.69-.56-6.33-2.94-9.53-1.6-2.15-3.32-2.72-5.62-1.14-3.48,2.38-6.53,10.75-7.9,14.73s-2.56,8.35-2.87,12.69c-.22,3.02.14,6.14.15,9.13.03,9.33-.44,18.93-1.17,28.29-.13,1.66.06,5.16-1.03,6.43-1.25,1.46-3.52-.64-3.93-1.99-.38-1.23-.22-2.33-.32-3.54-.69-8.55-.52-17.25.94-25.68.59-3.43,1.12-7.26,2.03-10.57.18-.65.62-1.19.65-1.93.03-.62-.19-1.88-.28-2.56-.36-2.62-.74-5.22-1.02-7.85-.08-.73-.64-2.61-.43-3.12.06-.14,2.08-1.73,2.31-1.82.88-.36,1.39-.06,1.57.85.25,1.27.03,2.38-.04,3.63,0,.12-.11.52.13.51.35-.01.46-1.2.57-1.48,1.23-3.19,2.35-6.47,3.8-9.58,2.06-4.4,8.96-12.39,14.09-7.65,2.3,2.12,3.2,7.95,3.22,10.93.05,7.38-2.98,15.32-6.41,21.75-.32.6-1,.99-.8,1.84ZM139.18,117.61c-.2-.19-.22.04-.27.18-.12.33-.26,1.08-.33,1.47-.3,1.52-.54,3.09-.79,4.61-.35,2.11-.34,4.18-.53,6.28-.07.77-.42,1.57-.5,2.33-.4,4.01.09,8.05.11,12.07l1.03,5.47c.78-.17.34-1.25.38-1.87.04-.77.34-1.73.39-2.57.14-2.19,0-4.5.13-6.68.03-.4.25-.79.26-1.16.01-.51-.3-.98-.27-1.53.05-.85.38-1.53.39-2.7,0-.69.11-1.14.12-1.69,0-.37-.26-.66-.25-1.02,0-.4.36-.75.37-1.15.01-.7-.32-1.52-.24-2.45.04-.53.3-1.02.27-1.53-.02-.45-.32-.87-.38-1.3-.07-.58.12-.95.12-1.4s-.25-1-.26-1.54c-.02-.71.61-3.47.26-3.8Z"/>
        <path d="M265.95,129.73c.22.19.5,1.26.53,1.59.19,1.68.08,2.91.37,4.65.1.62.21,3.12.89,3.23.55-.29,1.04-1.04,1.35-1.58.87-1.51,1.99-5.03,3.28-5.98.56-.41,1.12-.49,1.67-.77.78-.4.9-1.14,1.64-.14,1.23,1.66.27,4.84.91,6.67.88,2.48,1.95.51,2.76-.44,1.4-1.63,1.71-2.14,2.67-4.02.4-.79.98-1.48,1.25-2.35.78-.17,1.86-1.05,2.5-1.23,2.33-.65.38,1.87.13,2.57-1.83,5.2.66,8.65,6.12,8.43,2.26-.09,2.96-.93,4.81-1.62.27-.1.64.02.85-.18.4-.4.25-1.36.33-1.85.14-.87,2.07-5.45,2.63-6.11,1.13-1.34,4.21-2.26,5.78-3.1,1.13.24,2.76.26,2.99,1.65.17.99.26,2.19-.43,2.98-1.11,1.28-3.15,2.62-4.62,3.48-.99.58-1.92.37-1.73,1.85.14,1.09,2.27,2.68,3.26,3.04,1.09.39,4.43-.02,5.63-.3s4.71-1.87,5.8-2.56c.52-.33,1.41-1.5,1.96-.89.63.7-.61,1.52-1.18,1.92-1.41.97-4.24,2.39-5.85,3.16-3.08,1.47-6.53,2.16-9.92,1.33-.82-.2-3.55-2.2-4.02-2.93-.24-.37-.36-1.58-.82-.94-.6.82-.41.93-1.47,1.48-3.95,2.06-9.41,3.12-13.01-.15-.65-.59-1.31-2.56-2.25-2.12-.24.11-1.34,1.3-1.74,1.6-1.45,1.11-2.45,1.69-4.3.96-.35-.14-1.99-1.71-2.12-1.99-.22-.49.19-1.2-.39-1.54-.31-.07-.73,1.04-.9,1.28-.96,1.33-3.65,3.97-5.37,3.86-1-.07-1.96-1.23-2.23-2.15-.31-1.03-.04-1.93-.18-2.91-.24-1.76-.46-2.74-.5-4.64-.01-.59-.3-1.05-.04-1.7.22-.55,2.45-1.97,2.96-1.54ZM304.92,130.36c-.86.13-2.01,2.34-2.02,3.14-.02,1.69,2.56-.98,2.8-1.46.33-.67.07-1.81-.78-1.68Z"/>
        <path d="M182.29,134.48c1.53.06,2.26-2.13,3.79-2.2.55-.03.75.34,1.15.38.76.07,2.36-.21,3.22-.24.33-.01.71.14,1.15.12,1.46-.07,3.39-.84,4.88-.79.97.04,1.12,1.36.65,1.82-.36.35-2.63,1.47-3.13,1.51-.55.04-1.18-.24-1.76-.24-1.93.01-3.76.62-5.54.77-.79.07-1.66-.07-2.44,0-.45.04-.78.3-1.28.27-.8-.05-1.03-.73-.69-1.4Z"/>
      </g>
    </g>
  </g>
</svg>