<?xml version="1.0" encoding="UTF-8"?>
<svg id="Layer_2" data-name="Layer 2" xmlns="http://www.w3.org/2000/svg" viewBox="0 0 453.38 258.62">
  <defs>
    <style>
      .cls-1 {
        fill: none;
      }
    </style>
  </defs>
  <g id="Layer_1-2" data-name="Layer 1">
    <g>
      <rect class="cls-1" width="453.38" height="258.62"/>
      <g>
        <path d="M201.61,130.47c-1.17-.14-2.25-1.06-3.07-1.21-.6-.11-1.08.31-1.66.07-.2-.8-.78-1.88-.72-2.68.1-1.19,2.81-1.61,3.4-2.65.22-.39.44-2.51.82-2.6,2.01-.49,1.64,2.43,3.08,2.77.57.13,1.27.23,1.62-.34.37-.61.13-3.66.16-4.64.08-2.6-.12-4.57-.18-7.1-.09-3.97.48-9.24.01-12.99-.16-1.33-1.43-3.05-1.59-4.1-.24-1.56-.31-4.82-.37-6.56-.25-6.41,1-13.02.55-19.39-.1-1.46-1.11-3.93.05-5.18.15-.17,1.79-.93,2.01-.95.77-.04,1.97,1.73,2.13,2.48.24,1.15.02,2.63.07,3.84.34,8.78.05,17.65.01,26.49-.01,3.15.05,6.31,0,9.42-.03,1.73-.45,2.74-.54,4.08-.07,1.01.41,2.39.44,3.56.07,1.99-.07,4.07-.07,6.04,0,1.81.04,3.63-.12,5.43.26.87,1.36.57,1.93.75.85.27,1.32.74,2.36.84,2.48.25,5.43.17,8,.36,1.24.09,5.04,1.03,5.52-.53.43-1.38-.06-4.79.08-6.49.23-2.71.82-5.29.89-8.17.11-4.26-.52-8.54.04-12.76.08-.59.4-1.24.47-1.84.25-2.23-.77-4.98-.5-7.26.19-1.65.3-1.12,0-2.87-.18-1.04.38-1.87.36-2.84-.02-.77-.44-1.19-.54-1.79-.14-.92.08-2.05-.01-3.01-.56-5.97-1.22-11.92-1.07-17.97-.15-1.01,1.42-2.44,2.31-2.12.2.07,1.34.95,1.53,1.15,1.49,1.54.84,3.33.97,5.25.1,1.47.29,2.71.35,4.28.24,7.31-.24,15.36-.36,22.74-.04,2.51.3,5.81.01,8.19-.08.63-.53,1.14-.55,1.78-.02.69.45,1.37.48,2.1.06,1.45-.39,3.2-.47,4.66-.1,1.95.07,3.91-.18,5.86-.15,1.14-.86,2.96-.86,3.91,0,1.17.16,2.32.14,3.73-.02,1.06-.4,3.32.8,3.48,1.6.21,5.22.17,6.94.13,3.12-.06,6.5-.99,9.42-1.04.88-.02,1.9.42,2.65.36.52-.04,1.34-.43,2-.51,2.08-.23,4.23-.04,6.18-.22,1.04-.09,2.16-.59,3.23-.69,1.27-.11,2.87.33,3.9.16.56-.09,2.05-1.17,2.51-.53.35.39-.91,2.41-1.11,2.47-.37.12-.91-.03-1.36.07-2.31.48-4.75.94-7.15,1.2-.68.08-3.89.08-4.18.27-.17.11-.21.25-.18.44,1.65.54,3.14,1.95,4.83,2.37,5.13,1.27,16.92-1.73,22.63-2.56.55-.08,1.13-.73,1.71-.09,1.1,1.23-1.39,2.42-2.32,2.68-1.29.36-3.16.61-4.59.93-3.47.77-7.17,1.36-10.58,2.22-.72.18-1.37.69-2.04.8-1.32.22-2.38-.26-3.66.6s-.84,1.98-1.08,3.18c-.35,1.74-2.97,6.55-4.19,7.9-1.43,1.57-4.52,3.32-6.67,3.3-.99,0-3.2-1.08-3.79-1.91-2.05-2.87-.81-7.43-.57-10.66.03-.39-.17-.69-.16-1.03.04-1.12,1.34-1.78,2.04-2.59.56-.65,1.13-1.65,1.7-2.21.78-.76,2.07-1.6,2.91-2.42.17-.17.34-.23.27-.53l-7.55.36c-1.73.65-3.45.36-5.16.53-.96.1-7.1.73-7.38.97-.35.42-.11,1.07-.18,1.6-.49,3.84-.35,7.51-.36,11.39-.01,6.15-.16,12.33-.18,18.47,0,2.18.52,6.06-.09,7.91-.51,1.58-1.79,3.34-3.38,1.61-.1-.1-1.3-2.28-1.32-2.41-.11-.57.06-1.3-.03-1.93-.16-1.24-.68-2.51-.85-3.78-.86-6.76-.98-19.25-4.92-24.77-.43-.6-1.1-.86-1.5-1.34-.5-.61-.93-1.74-1.45-2.46-.35-.49-3.11-3.5-3.44-3.5h-3.2c-.13,0-.41.54-.4.77.02.56.67,1.19.67,1.81,0,.76-.56,2.39-.54,3.38s.48,2.05.35,3.2c-.08.74-.63,1.31-.66,1.8-.03.58.64,1.52.64,2.11s-.65,1.61-.67,2.33c-.05,1.88.41,4.12.35,6.04-.06,1.72-.84,3.63-.88,5.18-.04,1.65.49,3.55.35,5.49-.07,1.01-.52,2.21-.54,3.19-.02,1.45.18,3.05.17,4.61-.05,7.15-.1,14.19,0,21.35.02,1.19.33,2.44.19,3.73-.09.86-.76,3.83-1.84,3.78-1.83-.09-2.31-2.95-1.95-4.37.16-.65.73-1.23.78-1.9s-.32-1.4-.37-2.12c-.3-4.47.37-8.77.55-13.15.33-7.95.28-15.9.7-23.84.12-2.38.18-4.19.18-6.56-.02-4.85.64-9.78.37-14.59-.02-.4.14-2.22-.27-2.22-1.02-.09-2.2.12-3.2,0ZM224.62,129.78c-.62-.18-1.07.27-1.66.34-1.32.16-3.1-.07-4.45.18-1.44.26.65,2.71.89,3.55.34,1.19.43,2.83.93,4.04l3.86,5.38c.4.07.25-.17.26-.44.26-3.87.65-8.24.36-12.1-.02-.33-.06-.65-.21-.95ZM249.5,133.36c-1.68.24-2.6,2.84-2.63,4.33-.01.78.82,5.41,1.24,5.87.13.14.25.26.45.26.31,0,.61-.41.77-.65.82-1.23,3.21-6.3,3.2-7.62-.01-1.37-1.78-2.36-3.04-2.18Z"/>
        <path d="M130.22,112.16c.71,0,1.32-.31,2.04-.36,2.29-.18,6.72.91,8.87,1.81,1.1.46,7.06,4.66,7.66,5.5,6.2,8.65,9.18,17.87,4.34,28.14-1.99,4.22-6.87,8.73-11.32,10.2-3.98,1.31-10.7,1.84-14.67.54-5.74-1.87-10.62-4.54-10.8-11.26-.03-1.06,1.88-5.5,2.53-6.53.32-.5,1.76-2.12,2.23-2.23,2.21-.48.96,2.89.81,3.84-.68,4.3-.55,7.36,3.07,10.17,1.83,1.42,4.13,2.59,6.44,2.99s3.87.66,6.14.35c2.43-.33,6.97-1.08,8.75-2.63.7-.61,2.39-2.13,2.94-2.75,2.88-3.32,3.44-8.07,3.39-12.25-.02-1.27-.6-2.07-.85-3.08-1.52-6.26-2.08-8.94-6.72-13.73-3.51-3.63-10.41-5.83-15.43-5.11-2.55.37-6.44,3.97-8.68,3.61-1.04-.17-.97-.93-.26-1.53,2.13-1.79,4.77-3,6.46-5.27,1.01-1.35,1.22-2.09,2.44-3.43.76-.83.73-1.76,1.2-2.71,3.62-7.33,6.23-14.55,7.23-22.64.14-1.17-.29-1.56-.47-2.52-.96-5.11-.77-8.75-4.07-13.18-2.21-2.97-4.59-3.77-7.78-1.58-4.81,3.29-9.03,14.87-10.92,20.37s-3.53,11.54-3.97,17.54c-.3,4.18.19,8.49.2,12.63.04,12.9-.61,26.18-1.62,39.11-.18,2.29.08,7.14-1.42,8.89-1.73,2.02-4.87-.88-5.44-2.75-.52-1.71-.3-3.22-.44-4.9-.95-11.82-.72-23.86,1.3-35.51.82-4.74,1.55-10.03,2.81-14.62.25-.9.85-1.65.89-2.67.03-.86-.26-2.6-.39-3.54-.49-3.62-1.02-7.22-1.41-10.86-.11-1.01-.89-3.61-.59-4.32.08-.19,2.88-2.39,3.19-2.51,1.22-.5,1.92-.08,2.16,1.18.34,1.75.04,3.29-.05,5.02,0,.16-.15.72.18.71.48-.02.64-1.66.79-2.05,1.71-4.42,3.24-8.95,5.25-13.24,2.84-6.08,12.38-17.14,19.49-10.58,3.18,2.93,4.42,11,4.45,15.12.07,10.21-4.12,21.19-8.87,30.08-.44.83-1.38,1.37-1.1,2.54ZM108.88,112.7c-.28-.26-.3.05-.37.25-.16.46-.35,1.49-.46,2.03-.41,2.1-.74,4.27-1.1,6.37-.49,2.91-.47,5.78-.74,8.69-.1,1.06-.58,2.18-.69,3.22-.55,5.54.13,11.13.16,16.69l1.42,7.56c1.08-.24.48-1.73.53-2.58.06-1.07.47-2.4.54-3.55.19-3.03-.01-6.22.18-9.24.03-.55.35-1.09.36-1.61.02-.71-.41-1.36-.37-2.12.06-1.17.53-2.12.54-3.74,0-.95.15-1.58.17-2.33.01-.51-.35-.92-.35-1.41,0-.55.5-1.03.51-1.59.02-.97-.44-2.1-.33-3.39.06-.73.41-1.41.37-2.12-.03-.62-.45-1.2-.53-1.8-.1-.8.16-1.32.16-1.94s-.35-1.38-.36-2.13c-.02-.99.84-4.8.36-5.25Z"/>
        <path d="M284.17,129.45c.31.26.68,1.75.74,2.2.26,2.32.11,4.02.51,6.43.14.86.29,4.31,1.23,4.47.76-.41,1.44-1.44,1.87-2.18,1.21-2.09,2.75-6.95,4.54-8.26.77-.57,1.55-.68,2.31-1.07,1.08-.55,1.24-1.58,2.27-.2,1.7,2.29.37,6.7,1.26,9.23,1.21,3.43,2.69.7,3.82-.61,1.94-2.26,2.37-2.96,3.69-5.56.56-1.09,1.36-2.05,1.73-3.24,1.08-.23,2.58-1.45,3.46-1.7,3.22-.9.52,2.58.18,3.55-2.54,7.18.92,11.97,8.46,11.65,3.13-.13,4.1-1.29,6.65-2.23.37-.14.89.03,1.17-.25.56-.55.35-1.88.46-2.56.19-1.21,2.87-7.53,3.64-8.45,1.56-1.85,5.83-3.13,7.99-4.29,1.56.34,3.81.35,4.13,2.28.23,1.37.36,3.03-.59,4.12-1.54,1.77-4.35,3.63-6.39,4.82-1.37.8-2.66.52-2.39,2.56.2,1.51,3.14,3.7,4.51,4.2,1.5.55,6.12-.03,7.79-.41,1.68-.39,6.51-2.59,8.02-3.54.71-.45,1.95-2.08,2.71-1.22.87.97-.84,2.1-1.64,2.65-1.94,1.34-5.87,3.31-8.08,4.36-4.26,2.03-9.02,2.99-13.71,1.84-1.13-.28-4.91-3.05-5.55-4.05-.33-.52-.49-2.19-1.14-1.3-.83,1.14-.56,1.28-2.04,2.05-5.47,2.84-13.02,4.32-18-.21-.9-.82-1.81-3.54-3.11-2.93-.34.16-1.86,1.8-2.41,2.22-2.01,1.53-3.39,2.34-5.95,1.33-.49-.19-2.75-2.36-2.93-2.76-.31-.68.26-1.66-.54-2.13-.43-.09-1.02,1.44-1.25,1.77-1.33,1.84-5.04,5.49-7.43,5.33-1.38-.09-2.71-1.7-3.09-2.97-.43-1.42-.06-2.66-.24-4.02-.33-2.44-.63-3.79-.69-6.42-.02-.82-.42-1.45-.05-2.35.31-.76,3.39-2.73,4.09-2.13ZM338.05,130.33c-1.2.18-2.78,3.23-2.79,4.35-.03,2.33,3.54-1.36,3.87-2.02.46-.93.1-2.5-1.07-2.33Z"/>
        <path d="M168.48,136.01c2.12.08,3.13-2.94,5.24-3.04.76-.04,1.04.47,1.59.52,1.05.1,3.26-.29,4.45-.34.46-.02.98.2,1.59.17,2.02-.09,4.69-1.16,6.75-1.09,1.34.05,1.55,1.88.9,2.51-.5.49-3.63,2.03-4.33,2.09-.75.06-1.63-.33-2.43-.33-2.67.02-5.19.85-7.66,1.07-1.09.1-2.29-.09-3.38,0-.62.05-1.08.42-1.77.37-1.1-.08-1.42-1.02-.95-1.94Z"/>
      </g>
    </g>
  </g>
</svg>