<?xml version="1.0" encoding="UTF-8"?>
<svg id="Layer_2" data-name="Layer 2" xmlns="http://www.w3.org/2000/svg" viewBox="0 0 453.38 258.62">
  <defs>
    <style>
      .cls-1 {
        fill: none;
      }

      .cls-2 {
        font-family: Microsoft-Yi-Baiti, 'Microsoft Yi Baiti';
        font-size: 33.82px;
        font-style: italic;
        letter-spacing: .01em;
        stroke: #000;
        stroke-width: .17px;
      }
    </style>
  </defs>
  <g id="Layer_1-2" data-name="Layer 1">
    <g>
      <rect class="cls-1" width="453.38" height="258.62"/>
      <g>
        <path d="M177.05,99.33c-3.33,3.03-6.6,5.96-8.93,8.01-14.44-14.84-40.02-9.07-45.58,10.09-1.2,4.15-1.3,7.92-.08,12.02,4.18,14.06,18.73,20.12,32.88,15.27,8.62-2.96,13.73-7.3,20.02-13.31,7.94-7.58,15.67-15.38,23.57-23.01,15.12-14.61,29.13-36.86,51.42-14.34.96.97,3.07,2.98,3.07,2.98,0,0-8.21,7.9-9.88,9.71-5.77-4.57-9.68-10.6-16.51-6.35-16.64,14.9-31.87,31.68-48.63,46.38-16.81,14.73-39.44,20.22-57.37,4.01-17.49-15.82-14.86-43.97,3.5-57.09,17.92-12.8,37.68-9.84,52.52,5.62Z"/>
        <path d="M295.79,63.3v42.71s-39.1,37.6-53.33,51.47c-6.64,6.46-17.08,6.89-24.22.99-5.36-4.43-11.39-9.3-11.39-9.3l8.53-9.81s9.55,10.08,15.39,8.96c3.78-.73,6.72-3.54,9.43-6.04,14.45-13.32,42.7-41.25,42.7-41.25,0,0,0-26.39,0-37.72h12.89Z"/>
        <path d="M342.37,88.11l-37.58,34.65,39.36,36.26h-16.92l-31.1-26.43c.08.31-.33,25.94-.33,25.94h-11.93v-33.52c3.83-3.8,31.07-28.71,40.13-36.9h18.37Z"/>
        <rect x="219.99" y="119.01" width="27.53" height="5.23" transform="translate(149.77 -128.13) rotate(43.93)"/>
        <rect x="215.23" y="124.1" width="27.53" height="5.23" transform="translate(151.97 -123.41) rotate(43.93)"/>
        <text class="cls-2" transform="translate(178.36 189.7) scale(.69 1)"><tspan x="0" y="0">West Africa</tspan></text>
      </g>
    </g>
  </g>
</svg>