<?xml version="1.0" encoding="UTF-8"?>
<svg id="Layer_2" data-name="Layer 2" xmlns="http://www.w3.org/2000/svg" viewBox="0 0 453.38 258.62">
  <defs>
    <style>
      .cls-1 {
        stroke: #000;
        stroke-linecap: round;
        stroke-linejoin: round;
        stroke-width: 1.77px;
      }

      .cls-1, .cls-2 {
        fill: none;
      }
    </style>
  </defs>
  <g id="Layer_1-2" data-name="Layer 1">
    <g>
      <rect class="cls-2" width="453.38" height="258.62"/>
      <g>
        <g>
          <path d="M210.43,133.36v25.34c0,.9-.73,1.63-1.63,1.63h-10.68c-.9,0-1.63-.73-1.63-1.63v-37.62c0-.89.71-1.62,1.6-1.63,4.29-.05,15.8-.17,17.4.02,5.3.62,9.94,2.43,13.22,4.73,5.35,3.77,8.03,8.89,8.03,15.36s-2.29,11.23-6.86,15.15c-3.98,3.41-8.41,5.33-14.38,5.77-.53.04-.74.05-1.23.04-.88-.02-1.59-.74-1.59-1.63v-9.12c0-.76.52-1.42,1.26-1.59.43-.1.96-.22,1.55-.37,4.55-1.16,6.97-3.91,6.97-8.25,0-3.9-2.86-6.43-6.97-7.6-.98-.28-2.44-.27-3.55-.22-.86.05-1.53.76-1.53,1.62Z"/>
          <path d="M257.23,121.09v37.6c0,.9-.73,1.63-1.63,1.63h-10.68c-.9,0-1.63-.73-1.63-1.63v-37.6c0-.9.73-1.63,1.63-1.63h10.68c.9,0,1.63.73,1.63,1.63Z"/>
          <path d="M288.06,135.44h14.15c.9,0,1.63.73,1.63,1.63v10.14c0,3.99-1.51,7.34-4.87,10.06-3.35,2.71-7.47,4.07-12.37,4.07-6.36,0-11.76-2.1-16.19-6.32-4.44-4.21-6.66-9.34-6.66-15.39s2.26-11.11,6.78-15.15c4.52-4.03,10.16-6.05,16.93-6.05h3.62c.9,0,1.63.73,1.63,1.63v9.45c0,.9-.73,1.63-1.63,1.63h-1.94c-3.27,0-5.94.21-8.01,1.99-2.07,1.78-3.11,4.08-3.11,6.91s.96,5.19,2.88,6.88c1.92,1.7,4.52,2.54,7.79,2.54h1.06c.9,0,1.63-.73,1.63-1.63v-3.14h-1.63s-1.7,0-1.7,0c-.9,0-1.63-.73-1.63-1.63v-6.03c0-.9.73-1.63,1.63-1.63Z"/>
          <path d="M323.59,121.09v37.6c0,.9-.73,1.63-1.63,1.63h-10.68c-.9,0-1.63-.73-1.63-1.63v-37.6c0-.9.73-1.63,1.63-1.63h10.68c.9,0,1.63.73,1.63,1.63Z"/>
          <path d="M353.34,131.2v27.5c0,.9-.73,1.63-1.63,1.63h-10.68c-.9,0-1.63-.73-1.63-1.63v-27.5h-9.04c-.9,0-1.63-.73-1.63-1.63v-8.48c0-.9.73-1.63,1.63-1.63h31.98c.9,0,1.63.73,1.63,1.63v8.48c0,.9-.73,1.63-1.63,1.63h-9.01Z"/>
          <path d="M386.1,140.35v9.88c0,.2-.16.36-.36.36h-2.03c-.9,0-1.63.73-1.63,1.63v6.47c0,.9-.73,1.63-1.63,1.63h-10.68c-.9,0-1.63-.73-1.63-1.63v-24.35c0-5.03,1.57-8.93,4.72-11.72,3.14-2.78,7.57-4.18,13.26-4.18s9.55,1.26,12.18,3.79c2.63,2.52,3.95,6.42,3.95,11.69v24.77c0,.9-.73,1.63-1.63,1.63h-10.68c-.9,0-1.63-.73-1.63-1.63v-23.97c0-1.6-.22-2.7-.65-3.32-.43-.62-1.21-.93-2.33-.93-2.17,0-3.26,1.42-3.26,4.25v3.46c0,.9.73,1.63,1.63,1.63h1.85c.29,0,.53.24.53.53Z"/>
          <path d="M411.37,119.47h10.68c.9,0,1.63.73,1.63,1.63v25.75c0,.9.73,1.63,1.63,1.63h4.28v10.23c0,.9-.73,1.63-1.63,1.63h-16.58c-.9,0-1.63-.73-1.63-1.63v-37.6c0-.9.73-1.63,1.63-1.63Z"/>
        </g>
        <path d="M50.62,140.06c-.59,0-.91-.69-.53-1.14l18.73-22.4c.1-.12.16-.28.16-.44v-18.11c0-.64-.8-.94-1.22-.45l-43.35,50.41c-1.4,1.63-.24,4.15,1.91,4.15h31.06c.38,0,.69.31.69.69v6.47c0,.38.31.69.69.69h11.68c.38,0,.69-.31.69-.69v-19.19h-20.51Z"/>
        <path d="M158.94,140.06c-.59,0-.91-.69-.53-1.14l18.73-22.4c.1-.12.16-.28.16-.44v-18.11c0-.64-.8-.94-1.22-.45l-43.35,50.41c-1.4,1.63-.24,4.15,1.91,4.15h31.06c.38,0,.69.31.69.69v6.47c0,.38.31.69.69.69h11.68c.38,0,.69-.31.69-.69v-19.19h-20.51Z"/>
        <g>
          <g>
            <path class="cls-1" d="M109.35,152.48c-15.04,3.01-29.66-6.74-32.68-21.77"/>
            <path class="cls-1" d="M93.44,99.92c1.96-.91,4.07-1.61,6.28-2.05,15.04-3.01,29.66,6.74,32.68,21.77,2.35,11.74-3.07,23.22-12.72,29.13"/>
          </g>
          <path class="cls-1" d="M86.74,117.48c2.5-5.96,7.81-10.62,14.62-11.98,10.9-2.18,21.51,4.88,23.69,15.79,1.14,5.69-.24,11.31-3.38,15.68"/>
          <path class="cls-1" d="M110.27,114.09c3.59,1.5,6.39,4.7,7.21,8.8,1.31,6.56-2.94,12.94-9.5,14.25-5.12,1.03-10.13-1.34-12.71-5.55"/>
        </g>
      </g>
    </g>
  </g>
</svg>