<?xml version="1.0" encoding="UTF-8"?>
<svg id="Layer_2" data-name="Layer 2" xmlns="http://www.w3.org/2000/svg" viewBox="0 0 453.38 258.62">
  <defs>
    <style>
      .cls-1 {
        fill: none;
      }

      .cls-2 {
        stroke: #000;
        stroke-miterlimit: 10;
        stroke-width: 2.65px;
      }
    </style>
  </defs>
  <g id="Layer_1-2" data-name="Layer 1">
    <g>
      <rect class="cls-1" width="453.38" height="258.62"/>
      <g>
        <circle class="cls-2" cx="190.87" cy="91.15" r="13.45"/>
        <path class="cls-2" d="M234.73,160.98l-29.84-45.2c-2.89-3.12-7.03-5.08-11.62-5.08-8.33,0-15.17,6.43-15.8,14.6h-.05v45.33h.03c.42,5.75,4.81,10.29,10.67,10.29s11.12-4.98,11.12-11.12c0-1.16-.09-23.65-.09-23.65l18.84,28.94.15-.1c1.86,3.53,5.57,5.93,9.83,5.93,6.14,0,11.36-4.96,10.82-11.08-.3-3.4-2.02-5.96-4.06-8.87Z"/>
        <path class="cls-2" d="M273.31,162.61l-29.7-45c-2.62-4.19-5.77-6.53-10.29-6.53-6.14,0-11.12,4.98-11.12,11.12,0,2.9,1.28,5.18,2.94,7.53l29.56,44.66c1.75,3.86,5.63,6.54,10.13,6.54,6.14,0,11.12-4.98,11.12-11.12,0-2.74-1-5.26-2.64-7.2Z"/>
        <path class="cls-2" d="M234.73,160.98l-29.84-45.2c-2.1-3.23-7.03-5.08-11.62-5.08"/>
      </g>
    </g>
  </g>
</svg>