<?xml version="1.0" encoding="UTF-8"?>
<svg id="Layer_2" data-name="Layer 2" xmlns="http://www.w3.org/2000/svg" viewBox="0 0 453.38 258.62">
  <defs>
    <style>
      .cls-1 {
        fill: none;
      }

      .cls-2 {
        stroke: #000;
        stroke-width: .66px;
      }
    </style>
  </defs>
  <g id="Layer_1-2" data-name="Layer 1">
    <g>
      <rect class="cls-1" width="453.38" height="258.62"/>
      <g>
        <g>
          <path class="cls-2" d="M145.2,103.33c3.11,0,5.49.57,7.15,1.7,1.66,1.13,2.49,2.9,2.49,5.31,0,1.26-.22,2.33-.66,3.23-.44.9-1.09,1.63-1.93,2.19-.84.57-1.87.98-3.09,1.25-1.21.27-2.6.4-4.17.4h-1.94v7.53h-3.89v-21.09c.91-.21,1.91-.34,3.01-.42,1.1-.07,2.11-.11,3.04-.11ZM145.48,106.69c-.99,0-1.8.03-2.44.09v7.29h1.88c1.87,0,3.31-.26,4.32-.79,1.01-.52,1.51-1.52,1.51-2.98,0-.7-.13-1.29-.4-1.76-.27-.47-.64-.84-1.11-1.11-.47-.27-1.03-.46-1.68-.57-.65-.11-1.34-.17-2.08-.17Z"/>
          <path class="cls-2" d="M170.15,103.33c3.09,0,5.45.57,7.08,1.7,1.64,1.13,2.45,2.86,2.45,5.19,0,2.9-1.43,4.87-4.29,5.9.39.47.83,1.05,1.33,1.73s1,1.42,1.51,2.21c.51.79,1.01,1.6,1.48,2.44.47.83.9,1.65,1.27,2.45h-4.35c-.39-.74-.81-1.49-1.27-2.24-.45-.75-.91-1.48-1.37-2.19-.46-.71-.92-1.38-1.37-2.01-.45-.63-.88-1.19-1.27-1.68-.29.02-.54.03-.74.03h-2.47v8.09h-3.89v-21.09c.95-.21,1.96-.34,3.03-.42,1.07-.07,2.03-.11,2.87-.11ZM170.42,106.69c-.82,0-1.58.03-2.28.09v6.92h1.7c.95,0,1.78-.05,2.5-.15.72-.1,1.32-.29,1.81-.56.48-.27.85-.63,1.1-1.08s.37-1.03.37-1.73c0-.66-.12-1.21-.37-1.67s-.6-.81-1.06-1.08c-.46-.27-1.01-.46-1.65-.57-.64-.11-1.34-.17-2.1-.17Z"/>
          <path class="cls-2" d="M209.48,114.23c0,1.83-.27,3.45-.82,4.85-.55,1.4-1.29,2.57-2.22,3.5s-2.03,1.64-3.29,2.11c-1.26.47-2.59.71-4.01.71s-2.76-.24-4.03-.71c-1.27-.47-2.37-1.18-3.3-2.11-.94-.94-1.68-2.1-2.24-3.5-.56-1.4-.83-3.01-.83-4.85s.28-3.44.83-4.83c.56-1.39,1.31-2.56,2.27-3.5s2.06-1.66,3.32-2.13c1.26-.47,2.58-.71,3.98-.71s2.73.24,3.98.71c1.25.47,2.35,1.18,3.29,2.13s1.68,2.11,2.24,3.5c.56,1.39.83,3,.83,4.83ZM192.77,114.23c0,1.17.14,2.24.43,3.19.29.96.71,1.77,1.25,2.44.54.67,1.21,1.19,1.99,1.56.78.37,1.67.56,2.65.56s1.84-.19,2.62-.56c.78-.37,1.45-.89,1.99-1.56.54-.67.96-1.48,1.25-2.44s.43-2.02.43-3.19-.14-2.24-.43-3.2-.71-1.77-1.25-2.44c-.55-.67-1.21-1.19-1.99-1.56-.78-.37-1.66-.56-2.62-.56s-1.87.19-2.65.56c-.78.37-1.45.9-1.99,1.57-.55.68-.96,1.49-1.25,2.44-.29.95-.43,2.01-.43,3.18Z"/>
          <path class="cls-2" d="M237.76,114.23c0,1.85-.29,3.46-.86,4.83-.58,1.37-1.39,2.51-2.45,3.43-1.06.92-2.34,1.6-3.83,2.04-1.49.44-3.14.66-4.96.66-.86,0-1.84-.04-2.93-.11-1.09-.07-2.13-.22-3.12-.45v-20.78c.99-.23,2.04-.37,3.15-.43,1.11-.06,2.1-.09,2.96-.09,1.79,0,3.43.21,4.91.63,1.48.42,2.75,1.08,3.81,1.98,1.06.9,1.88,2.03,2.45,3.4.58,1.37.86,3,.86,4.89ZM223.49,121.73c.23.02.52.04.9.05.37.01.87.02,1.51.02,2.61,0,4.56-.66,5.85-1.99,1.29-1.33,1.93-3.18,1.93-5.57s-.63-4.29-1.88-5.59c-1.26-1.3-3.2-1.95-5.83-1.95-1.15,0-1.98.03-2.47.09v14.94Z"/>
          <path class="cls-2" d="M247.88,124.94v-21.39h13.74v3.3h-9.85v5.28h8.77v3.24h-8.77v6.27h10.59v3.3h-14.48Z"/>
          <path class="cls-2" d="M277.02,122.04c1.4,0,2.42-.24,3.06-.71.64-.47.96-1.14.96-2.01,0-.51-.11-.96-.32-1.33-.22-.37-.52-.7-.93-1-.4-.3-.89-.58-1.47-.83-.58-.26-1.23-.51-1.98-.76-.74-.27-1.46-.56-2.15-.88-.69-.32-1.3-.71-1.82-1.19-.52-.47-.95-1.04-1.27-1.7-.32-.66-.48-1.45-.48-2.38,0-1.93.67-3.45,2.01-4.55,1.34-1.1,3.16-1.65,5.46-1.65,1.34,0,2.53.15,3.57.45,1.04.3,1.86.62,2.45.97l-1.2,3.15c-.7-.39-1.47-.69-2.3-.9-.83-.21-1.69-.31-2.58-.31-1.05,0-1.87.22-2.45.65-.59.43-.88,1.04-.88,1.82,0,.47.1.88.29,1.22.2.34.47.64.83.91.36.27.78.51,1.27.74.48.23,1.01.44,1.59.65,1.01.37,1.91.75,2.7,1.13.79.38,1.46.83,2.01,1.36.54.52.96,1.14,1.25,1.85.29.71.43,1.57.43,2.58,0,1.93-.68,3.43-2.05,4.49-1.37,1.06-3.37,1.59-6,1.59-.89,0-1.69-.06-2.42-.17-.73-.11-1.38-.25-1.94-.42-.57-.16-1.05-.33-1.47-.51-.41-.17-.74-.33-.99-.48l1.14-3.18c.56.31,1.31.62,2.25.93.95.31,2.09.46,3.43.46Z"/>
          <path class="cls-2" d="M294.37,103.55h3.89v21.39h-3.89v-21.39Z"/>
          <path class="cls-2" d="M319.26,106.48c-2.2,0-3.89.68-5.05,2.05-1.16,1.37-1.74,3.27-1.74,5.7,0,1.15.14,2.21.42,3.16s.69,1.78,1.23,2.45c.54.68,1.22,1.21,2.04,1.59.81.38,1.76.57,2.86.57.68,0,1.27-.03,1.76-.08.49-.05.88-.12,1.17-.2v-7.69h3.89v10.28c-.54.21-1.44.43-2.72.68-1.28.25-2.75.37-4.41.37-1.54,0-2.95-.25-4.23-.74-1.28-.49-2.36-1.21-3.26-2.16-.9-.95-1.59-2.11-2.08-3.49-.49-1.38-.74-2.96-.74-4.75s.27-3.38.82-4.75c.54-1.38,1.29-2.55,2.24-3.5.95-.96,2.06-1.68,3.33-2.18,1.28-.49,2.63-.74,4.08-.74.99,0,1.87.07,2.64.2s1.44.28,1.99.45c.56.17,1.01.34,1.37.52.36.19.61.32.76.4l-1.17,3.18c-.62-.37-1.38-.68-2.3-.94-.92-.26-1.88-.39-2.89-.39Z"/>
          <path class="cls-2" d="M350.62,124.94c-.7-1.17-1.48-2.43-2.35-3.78-.86-1.35-1.76-2.71-2.69-4.08-.93-1.37-1.87-2.7-2.82-3.98-.96-1.29-1.87-2.44-2.73-3.47v15.31h-3.83v-21.39h3.18c.82.86,1.71,1.89,2.65,3.07.95,1.18,1.9,2.41,2.86,3.69.96,1.28,1.88,2.56,2.78,3.84.9,1.29,1.69,2.49,2.39,3.6v-14.2h3.86v21.39h-3.3Z"/>
        </g>
        <g>
          <path d="M155.75,153.63h-1.74l-2.43-6.39h-9.78c-.35,1-.73,2.07-1.14,3.18-.41,1.12-.8,2.19-1.18,3.2h-1.54c.65-1.72,1.3-3.4,1.93-5.04.64-1.65,1.27-3.28,1.9-4.91.63-1.63,1.26-3.26,1.9-4.91s1.28-3.32,1.93-5.03h2.05l8.11,19.89ZM151.16,146.1l-4.61-11.05-4.37,11.05h8.98Z"/>
          <path d="M179.92,153.63h-1.6l-1.98-5.28c-.19-.51-.41-.99-.64-1.43-.24-.45-.51-.84-.83-1.17-.31-.33-.67-.6-1.08-.79-.41-.19-.88-.29-1.42-.29h-6.95v8.96h-1.45v-19.87h8.95c.83,0,1.64.08,2.42.23s1.48.42,2.09.81c.61.39,1.1.92,1.46,1.61.36.68.54,1.56.54,2.62,0,.67-.08,1.29-.25,1.86-.16.57-.41,1.09-.74,1.54s-.76.84-1.27,1.16c-.51.32-1.12.55-1.81.7.38.29.68.57.93.83.24.27.45.55.63.85.17.3.33.64.47,1,.14.36.3.78.48,1.25l2.05,5.41ZM165.42,143.22h6.9c.98,0,1.82-.07,2.52-.22.7-.15,1.28-.38,1.73-.72.45-.33.79-.77,1.01-1.3s.33-1.19.33-1.96c0-1.37-.43-2.34-1.3-2.93-.87-.59-2.16-.88-3.87-.88h-7.31v8Z"/>
          <path d="M203.9,139.08c-.13-.59-.38-1.15-.74-1.66-.36-.51-.82-.96-1.36-1.34-.54-.38-1.17-.68-1.88-.9-.71-.22-1.47-.33-2.28-.33-1.15,0-2.19.19-3.13.56s-1.74.93-2.4,1.66-1.17,1.65-1.52,2.74c-.36,1.09-.54,2.37-.54,3.82s.18,2.73.54,3.84c.36,1.11.86,2.04,1.52,2.79s1.45,1.32,2.38,1.71c.93.39,1.96.58,3.09.58,1.72,0,3.13-.38,4.25-1.15,1.11-.77,1.8-1.89,2.07-3.37h1.51c-.15.94-.44,1.79-.89,2.53-.45.74-1.01,1.37-1.69,1.88-.68.51-1.46.9-2.34,1.16-.88.27-1.84.4-2.87.4-1.4,0-2.66-.24-3.78-.73-1.12-.49-2.07-1.18-2.86-2.08-.79-.9-1.39-1.98-1.81-3.26-.42-1.28-.63-2.71-.63-4.29s.21-2.99.63-4.25c.42-1.26,1.03-2.33,1.82-3.22s1.75-1.57,2.87-2.05c1.12-.48,2.37-.72,3.77-.72.96,0,1.87.14,2.73.42.86.28,1.64.67,2.33,1.17.69.5,1.27,1.1,1.74,1.8s.8,1.46.98,2.3h-1.51Z"/>
          <path d="M230.13,153.63h-1.47v-9.89h-12.25v9.89h-1.45v-19.87h1.45v8.53h12.25v-8.53h1.47v19.87Z"/>
          <path d="M242.52,153.63h-1.45v-19.87h1.45v19.87Z"/>
          <path d="M267.08,135.21h-6.95v18.42h-1.45v-18.42h-6.88v-1.45h15.28v1.45Z"/>
          <path d="M290.16,153.63h-14.35v-19.87h13.86v1.45h-12.41v7.35h11.63v1.45h-11.63v8.17h12.9v1.45Z"/>
          <path d="M314.15,139.08c-.13-.59-.38-1.15-.74-1.66-.36-.51-.82-.96-1.36-1.34-.54-.38-1.17-.68-1.88-.9-.71-.22-1.47-.33-2.28-.33-1.15,0-2.19.19-3.13.56s-1.74.93-2.4,1.66-1.17,1.65-1.52,2.74c-.36,1.09-.54,2.37-.54,3.82s.18,2.73.54,3.84c.36,1.11.86,2.04,1.52,2.79s1.45,1.32,2.38,1.71c.93.39,1.96.58,3.09.58,1.72,0,3.13-.38,4.25-1.15,1.11-.77,1.8-1.89,2.07-3.37h1.51c-.15.94-.44,1.79-.89,2.53-.45.74-1.01,1.37-1.69,1.88-.68.51-1.46.9-2.34,1.16-.88.27-1.84.4-2.87.4-1.4,0-2.66-.24-3.78-.73-1.12-.49-2.07-1.18-2.86-2.08-.79-.9-1.39-1.98-1.81-3.26-.42-1.28-.63-2.71-.63-4.29s.21-2.99.63-4.25c.42-1.26,1.03-2.33,1.82-3.22s1.75-1.57,2.87-2.05c1.12-.48,2.37-.72,3.77-.72.96,0,1.87.14,2.73.42.86.28,1.64.67,2.33,1.17.69.5,1.27,1.1,1.74,1.8s.8,1.46.98,2.3h-1.51Z"/>
          <path d="M338.88,135.21h-6.95v18.42h-1.45v-18.42h-6.88v-1.45h15.28v1.45Z"/>
          <path d="M355.17,153.99c-1.19,0-2.2-.12-3.04-.37-.84-.25-1.54-.58-2.1-1.01-.56-.42-1-.92-1.32-1.49-.33-.57-.57-1.17-.74-1.81-.17-.64-.28-1.31-.32-2-.04-.69-.06-1.36-.06-2.01v-11.54h1.45v11.49c0,1.51.14,2.74.41,3.69.27.95.67,1.69,1.2,2.22s1.17.9,1.92,1.09,1.62.29,2.6.29,1.87-.1,2.64-.29,1.41-.56,1.92-1.1c.51-.54.9-1.28,1.17-2.22.27-.94.4-2.17.4-3.68v-11.49h1.45v11.54c0,1.37-.12,2.59-.34,3.67-.23,1.08-.63,1.99-1.2,2.73-.57.74-1.34,1.31-2.32,1.71-.98.39-2.22.59-3.72.59Z"/>
          <path d="M389,153.63h-1.6l-1.98-5.28c-.19-.51-.41-.99-.64-1.43-.24-.45-.51-.84-.83-1.17-.31-.33-.67-.6-1.08-.79-.41-.19-.88-.29-1.42-.29h-6.95v8.96h-1.45v-19.87h8.95c.83,0,1.64.08,2.42.23s1.48.42,2.09.81c.61.39,1.1.92,1.46,1.61.36.68.54,1.56.54,2.62,0,.67-.08,1.29-.25,1.86-.16.57-.41,1.09-.74,1.54s-.76.84-1.27,1.16c-.51.32-1.12.55-1.81.7.38.29.68.57.93.83.24.27.45.55.63.85.17.3.33.64.47,1,.14.36.3.78.48,1.25l2.05,5.41ZM374.51,143.22h6.9c.98,0,1.82-.07,2.52-.22.7-.15,1.28-.38,1.73-.72.45-.33.79-.77,1.01-1.3s.33-1.19.33-1.96c0-1.37-.43-2.34-1.3-2.93-.87-.59-2.16-.88-3.87-.88h-7.31v8Z"/>
          <path d="M412.93,153.63h-14.35v-19.87h13.86v1.45h-12.41v7.35h11.63v1.45h-11.63v8.17h12.9v1.45Z"/>
        </g>
        <g>
          <path d="M73.41,113.03h-34.82v30h13.93v-11.25c11.92,1.12,24.1-5.07,20.89-18.75ZM98.59,113.03h-15l12.86,30h15l-12.86-30Z"/>
          <path d="M73.41,113.03c3.2,13.68-8.97,19.87-20.89,18.75v11.25h-13.93v-30h34.82Z"/>
          <polygon points="98.59 113.03 111.45 143.03 96.45 143.03 83.59 113.03 98.59 113.03"/>
        </g>
      </g>
    </g>
  </g>
</svg>