<?xml version="1.0" encoding="UTF-8"?>
<svg id="Layer_2" data-name="Layer 2" xmlns="http://www.w3.org/2000/svg" viewBox="0 0 453.38 258.62">
  <defs>
    <style>
      .cls-1 {
        fill: #231f20;
      }

      .cls-2 {
        fill: none;
      }
    </style>
  </defs>
  <g id="Layer_1-2" data-name="Layer 1">
    <g>
      <rect class="cls-2" width="453.38" height="258.62"/>
      <g>
        <g>
          <path class="cls-1" d="M187.75,187h-1.37v-12.14h-3.38v12.14h-1.33v-18.9h1.33v6.49h3.38v-6.49h1.37v18.9Z"/>
          <path class="cls-1" d="M208.3,180.82c0,1.82-.65,3.38-1.94,4.67-1.29,1.29-2.85,1.94-4.67,1.94s-3.38-.65-4.67-1.94c-1.29-1.29-1.94-2.85-1.94-4.67s.65-3.4,1.94-4.69c1.29-1.28,2.85-1.92,4.67-1.92s3.4.64,4.69,1.92c1.28,1.28,1.92,2.85,1.92,4.69ZM206.96,180.82c0-1.76-.51-3.25-1.54-4.49-1.02-1.23-2.27-1.85-3.74-1.85s-2.68.62-3.71,1.85-1.54,2.73-1.54,4.49.51,3.23,1.54,4.47c1.02,1.24,2.26,1.86,3.71,1.86s2.69-.62,3.72-1.86c1.03-1.24,1.55-2.73,1.55-4.47Z"/>
          <path class="cls-1" d="M227.2,187h-1.37v-9.99c0-.66-.13-1.24-.4-1.72-.27-.49-.58-.73-.93-.73-.64,0-1.19.21-1.66.64-.47.42-.73.95-.79,1.57v10.24h-1.33v-9.99c0-.68-.14-1.26-.4-1.74-.27-.48-.59-.71-.96-.71-.62,0-1.16.2-1.61.61-.46.4-.73.91-.84,1.5v10.34h-1.33v-12.42h1.33v1.21c.52-1.01,1.33-1.52,2.45-1.52,1.3,0,2.15.62,2.54,1.86.43-1.24,1.3-1.86,2.61-1.86.72,0,1.35.27,1.89.81.54.54.81,1.18.81,1.92v9.99Z"/>
          <path class="cls-1" d="M247.12,183.77c-.56,1.1-1.37,1.98-2.42,2.65-1.06.67-2.22,1.01-3.51,1.01-1.82,0-3.38-.65-4.69-1.96s-1.96-2.87-1.96-4.69.65-3.41,1.96-4.7,2.87-1.94,4.69-1.94c1.26,0,2.42.32,3.46.96,1.04.64,1.85,1.5,2.41,2.58l-11.02,4.5c.27,1.43.88,2.61,1.85,3.55.96.94,2.06,1.41,3.31,1.41,1.08,0,2.04-.35,2.9-1.04.86-.69,1.5-1.61,1.94-2.75l1.09.4ZM245.88,177.81c-.43-1.03-1.07-1.86-1.91-2.47-.84-.61-1.76-.92-2.78-.92-1.45,0-2.69.62-3.72,1.86-1.04,1.24-1.55,2.74-1.55,4.5,0,.25.02.62.06,1.12l9.9-4.1Z"/>
          <path class="cls-1" d="M275.77,174.9h-3.97v12.1h-1.33v-18.87h4.72v.28h-3.38v6.21h3.97v.28Z"/>
          <path class="cls-1" d="M286.57,175.08c0,.54-.28.81-.84.81s-.84-.27-.84-.81c0-.17.06-.33.19-.5-.41.17-.67.51-.78,1.02v11.39h-1.33v-12.42h1.33v.31c.31-.43.79-.65,1.43-.65.56,0,.84.28.84.84Z"/>
          <path class="cls-1" d="M307,187h-1.33v-2.17c-1.33,1.74-3.09,2.61-5.29,2.61-1.83,0-3.39-.65-4.7-1.96-1.31-1.3-1.96-2.87-1.96-4.69s.65-3.41,1.96-4.7,2.87-1.94,4.69-1.94,3.41.65,4.7,1.94c1.29,1.29,1.94,2.86,1.94,4.7v6.21ZM305.66,180.79c0-1.76-.52-3.26-1.55-4.5-1.03-1.24-2.29-1.86-3.76-1.86s-2.69.62-3.72,1.86c-1.03,1.24-1.55,2.74-1.55,4.5s.52,3.26,1.55,4.5c1.03,1.24,2.28,1.86,3.72,1.86s2.72-.62,3.76-1.86c1.03-1.24,1.55-2.74,1.55-4.5Z"/>
          <path class="cls-1" d="M329.37,187c0,2.11-.74,3.91-2.23,5.38s-3.29,2.22-5.4,2.22-3.88-.74-5.37-2.22-2.23-3.27-2.23-5.38c0-1.08.21-2.08.62-3.01l.25.09c-.39.95-.59,1.92-.59,2.92,0,2.03.72,3.76,2.16,5.2s3.16,2.16,5.17,2.16c1.74,0,3.22-.72,4.44-2.16,1.22-1.44,1.83-3.17,1.83-5.2s-.61-3.76-1.83-5.2c-1.22-1.44-2.7-2.16-4.44-2.16-1.61,0-3.14.54-4.56,1.61-.62.48-1.22.7-1.8.68-.87-.02-1.3-.41-1.3-1.18,0-.6.36-1.1,1.09-1.49.62-.35,1.26-.53,1.92-.53.17,0,.3.01.4.03-.62-.52-.93-1.18-.93-1.99,0-.7.25-1.31.76-1.82.51-.51,1.12-.76,1.85-.76,1.22,0,2.03.57,2.42,1.71.35-.04.64-.29.87-.75.21-.39.29-.78.25-1.15l1.18.62c-.1.43-.41.81-.94,1.12-.42.25-.82.38-1.21.4v.62c0,.72-.25,1.34-.76,1.85-.51.51-1.11.76-1.82.76-.46,0-.86-.11-1.21-.34-.25-.04-.48-.06-.68-.06-.52,0-.97.12-1.37.37s-.59.59-.59,1.02c0,.62.31.93.93.93.27,0,.57-.12.9-.37,1.37-1.03,2.9-1.55,4.59-1.55,2.11,0,3.91.74,5.4,2.22s2.23,3.27,2.23,5.38ZM320.4,176.79c0-.62-.12-1.16-.37-1.61-.25-.45-.54-.68-.87-.68s-.62.23-.87.68c-.25.46-.37.99-.37,1.61s.12,1.16.37,1.63c.25.47.54.7.87.7s.62-.23.87-.7c.25-.47.37-1.01.37-1.63Z"/>
          <path class="cls-1" d="M334.74,175.08c0,.54-.28.81-.84.81s-.84-.27-.84-.81c0-.17.06-.33.19-.5-.41.17-.67.51-.78,1.02v11.39h-1.33v-12.42h1.33v.31c.31-.43.79-.65,1.43-.65.56,0,.84.28.84.84Z"/>
          <path class="cls-1" d="M355.17,187h-1.33v-2.17c-1.33,1.74-3.09,2.61-5.29,2.61-1.83,0-3.39-.65-4.7-1.96-1.31-1.3-1.96-2.87-1.96-4.69s.65-3.41,1.96-4.7,2.87-1.94,4.69-1.94,3.41.65,4.7,1.94c1.29,1.29,1.94,2.86,1.94,4.7v6.21ZM353.83,180.79c0-1.76-.52-3.26-1.55-4.5-1.03-1.24-2.29-1.86-3.76-1.86s-2.69.62-3.72,1.86c-1.03,1.24-1.55,2.74-1.55,4.5s.52,3.26,1.55,4.5c1.03,1.24,2.28,1.86,3.72,1.86s2.72-.62,3.76-1.86c1.03-1.24,1.55-2.74,1.55-4.5Z"/>
          <path class="cls-1" d="M368.85,187h-1.3v-9.96c0-.66-.14-1.24-.42-1.72-.28-.49-.6-.73-.95-.73-.62,0-1.16.2-1.61.61-.46.4-.73.92-.84,1.54v10.27h-1.33v-12.38h1.33v1.21c.52-1.01,1.33-1.52,2.45-1.52.72,0,1.35.27,1.88.82s.79,1.18.79,1.91v9.96Z"/>
          <path class="cls-1" d="M388.84,183.68c-.56,1.1-1.37,1.98-2.42,2.64s-2.22.99-3.51.99c-1.82,0-3.38-.65-4.67-1.94-1.29-1.29-1.94-2.85-1.94-4.67s.65-3.4,1.94-4.69c1.29-1.28,2.85-1.92,4.67-1.92,1.24,0,2.38.32,3.43.96,1.04.64,1.85,1.49,2.41,2.54l-1.06.47c-.43-1.12-1.08-2.01-1.92-2.68-.85-.67-1.8-1.01-2.85-1.01-1.45,0-2.68.62-3.71,1.85-1.02,1.23-1.54,2.73-1.54,4.49s.51,3.26,1.54,4.5c1.02,1.24,2.26,1.86,3.71,1.86,1.05,0,2.02-.35,2.89-1.05s1.51-1.61,1.92-2.73l1.12.4Z"/>
          <path class="cls-1" d="M408.83,183.77c-.56,1.1-1.37,1.98-2.42,2.65-1.06.67-2.22,1.01-3.51,1.01-1.82,0-3.38-.65-4.69-1.96s-1.96-2.87-1.96-4.69.65-3.41,1.96-4.7,2.87-1.94,4.69-1.94c1.26,0,2.42.32,3.46.96,1.04.64,1.85,1.5,2.41,2.58l-11.02,4.5c.27,1.43.88,2.61,1.85,3.55.96.94,2.06,1.41,3.31,1.41,1.08,0,2.04-.35,2.9-1.04.86-.69,1.5-1.61,1.94-2.75l1.09.4ZM407.59,177.81c-.43-1.03-1.07-1.86-1.91-2.47-.84-.61-1.76-.92-2.78-.92-1.45,0-2.69.62-3.72,1.86-1.04,1.24-1.55,2.74-1.55,4.5,0,.25.02.62.06,1.12l9.9-4.1Z"/>
        </g>
        <g>
          <path d="M135.98,85.76c-2.1-1.27-4.61-1.91-7.54-1.91l-1.12.03c-3.93.27-7.72,1.2-11.37,2.77-3.64,1.58-7.16,3.34-10.55,5.29v-8.09c-1.33,1.58-2.84,2.74-4.54,3.47-1.73.75-3.43,1.12-5.11,1.12l-1.07-.03v65.88c0,.95-.24,1.78-.71,2.5-.47.72-1.09,1.31-1.86,1.76-.77.46-1.59.75-2.49.87h10.36c1.27,0,2.44-.34,3.5-1.01,1.26-.86,1.89-2.08,1.89-3.66l.03-17.35,20.63,21.97h14.7l-27.08-28.83c5.28-2.11,10.24-4.95,14.86-8.5,4.39-3.37,7.91-7.43,10.57-12.19,1.46-2.66,2.4-5.47,2.81-8.44.13-.87.19-1.76.19-2.65,0-2.08-.34-4.13-1.01-6.18-.98-3.04-2.69-5.32-5.11-6.83ZM130.29,107.18c-.82,3.06-2.16,5.93-4.02,8.61-3.93,5.68-9.61,10.54-17.02,14.56l-.9.52c-.97.6-1.95,1.08-2.95,1.42v-39.13c2.11-1.17,4.24-2.3,6.39-3.42l.66-.36c.98-.53,1.99-.99,3.03-1.39.64-.16,1.28-.25,1.94-.25l.79.03c1.86,0,3.63.34,5.3,1.01,1.89.8,3.4,2,4.51,3.61,1.95,2.77,2.92,6.07,2.92,9.89,0,1.66-.22,3.29-.66,4.89Z"/>
          <path d="M199.37,83.93v52.87c-.05.55-.13,1.1-.22,1.67-.51,2.97-1.57,5.75-3.17,8.33-.47.78-.99,1.52-1.56,2.21-.36.47-.75.92-1.15,1.34-1.79,1.62-3.84,2.89-6.17,3.81-2.33.92-4.83,1.38-7.49,1.38-3.37,0-6.47-.72-9.29-2.17-2.82-1.45-5.13-3.4-6.93-5.85-1.79-2.45-2.88-5.22-3.27-8.32v-3.88c.02-.09.03-.18.03-.27h-.03v-44.19h.02c0-.42,0-.85-.02-1.27v-1.14c-.1-1.39-.52-2.69-.82-3.45,0,0-.01.01-.02.02-.53-1.46-1.3-2.74-2.33-3.82-1.6-1.65-3.72-2.75-6.33-3.32l-1.01-.19c-.85-.12-1.69-.19-2.54-.23-.09.01-3.82.54-8.9,1.99.6-.04,1.2,0,1.78.13l.7.18c1.66.36,3.17,1.03,4.52,2.01,1.52,1.15,2.61,2.61,3.27,4.39.52,1.39.83,2.84.96,4.36v44.52c.15,5.12,1.72,9.75,4.73,13.91,1.69,2.26,3.69,4.19,5.98,5.79h.03c1.86,1.29,3.86,2.33,6.01,3.12,5.21,1.8,10.48,1.99,15.82.57,4.88-1.38,9.03-3.95,12.43-7.71.09-.11.18-.22.27-.33,2.11-2.5,3.67-5.27,4.67-8.33.04-.11.07-.23.11-.36.49-1.57.82-3.17.98-4.81v-52.98h-1.09Z"/>
          <path d="M257.22,123.27h-4.84v1.09h16.78c1.09,6.25.86,11.92-.71,17.01-1.57,5.09-4.41,8.98-8.53,11.65-.02.02-.04.04-.05.05-.42.24-.84.47-1.26.71h-.03c-4.19,2.09-8.73,2.61-13.61,1.56-4.88-1.06-9.62-3.44-14.22-7.15-4.6-3.71-8.57-8.49-11.9-14.36-3.17-5.83-5.13-11.63-5.89-17.39-.76-5.77-.34-10.99,1.24-15.67,1.58-4.68,4.27-8.3,8.06-10.85h.03c.78-.47,1.59-.92,2.43-1.34h.03c3.7-1.62,7.66-2.05,11.89-1.28,4.23.77,8.39,2.56,12.49,5.38,4.1,2.82,7.82,6.51,11.15,11.07.13-1.11.83-1.94,2.12-2.49s2.73-.92,4.34-1.11c1.61-.19,2.96-.29,4.06-.29h1.34c-3.24-4.63-7.32-8.36-12.24-11.2-6.81-3.84-14.13-5.47-21.94-4.89-8.11.75-15.27,3.74-21.5,8.99-5.94,5.17-9.93,11.56-11.97,19.15-1.95,7.67-1.58,15.21,1.09,22.62.67,1.84,1.48,3.62,2.43,5.33,3.97,6.99,9.57,12.25,16.8,15.77,7.05,3.3,14.43,4.37,22.13,3.22,8.09-1.33,15.06-4.86,20.9-10.6,5.47-5.57,8.94-12.2,10.44-19.87.27-1.48.45-2.95.55-4.43.02-.09.02-.17,0-.25.02-.16.03-.33.03-.49-5.03.02-9.2.03-12.53.03h-9.11Z"/>
          <path d="M294.81,163.05c-.54-.41-.99-.94-1.36-1.59-.37-.65-.56-1.46-.56-2.41v-75.17c-1.71,1.99-3.51,3.3-5.38,3.95-1.11.41-2.12.68-3.02.8-.91.13-1.92.16-3.05.1v70.7c0,.23,0,.46.03.67.47,2.42,1.9,3.88,4.3,4.38.25.04.52.06.79.06h11.75c-.74-.16-1.37-.34-1.9-.56-.53-.21-1.06-.53-1.59-.94Z"/>
          <path d="M308.36,158.17c.91-.75,1.47-1.73,1.67-2.95l.03-.08c.02-.2.03-12.1.03-35.71h24.21v-1.09h-24.21v-33.5c22.37,0,33.85,0,34.46.03l3.63-.03v-1.09h-38.09v-.03h-10.71v70.44c0,1.37-.45,2.48-1.35,3.33-.9.86-1.93,1.41-3.07,1.67l-.63.14h50.22l1.8.03,1.86-.03.03-.55-.03-.55c-26.18,0-39.46,0-39.84-.03Z"/>
        </g>
      </g>
    </g>
  </g>
</svg>