<?xml version="1.0" encoding="UTF-8"?>
<svg id="Layer_2" data-name="Layer 2" xmlns="http://www.w3.org/2000/svg" viewBox="0 0 453.38 258.62">
  <defs>
    <style>
      .cls-1 {
        fill: none;
      }
    </style>
  </defs>
  <g id="Layer_1-2" data-name="Layer 1">
    <g>
      <rect class="cls-1" width="453.38" height="258.62"/>
      <g>
        <g>
          <g>
            <path d="M132.4,144.32h-.53v-7.26h.53v7.26Z"/>
            <rect x="131.6" y="136.78" width="1.08" height="7.81"/>
          </g>
          <g>
            <path d="M143.15,144.32h-.53v-6.4l-2.61,6.4h-.56l-2.61-6.4v6.4h-.53v-7.26h.77l2.65,6.6,2.67-6.6h.76v7.26Z"/>
            <path d="M143.42,144.59h-1.08v-5.28l-2.16,5.28h-.92l-2.15-5.27v5.27h-1.08v-7.81h1.23l2.46,6.14,2.48-6.14h1.21v7.81ZM136.58,137.33v.59l.51-.1-.2-.49h-.31ZM142.37,137.82l.5.1v-.59h-.3l-.2.49Z"/>
          </g>
          <g>
            <path d="M153.62,144.32h-.53v-6.4l-2.61,6.4h-.56l-2.61-6.4v6.4h-.53v-7.26h.77l2.65,6.6,2.67-6.6h.76v7.26Z"/>
            <path d="M153.89,144.59h-1.08v-5.28l-2.16,5.28h-.92l-2.15-5.27v5.27h-1.08v-7.81h1.23l2.46,6.14,2.48-6.14h1.21v7.81ZM147.05,137.33v.59l.51-.1-.2-.49h-.31ZM152.85,137.82l.5.1v-.59h-.3l-.2.49Z"/>
          </g>
          <g>
            <path d="M160.4,136.92c.5,0,.95.09,1.37.27.42.18.78.43,1.08.76.3.33.54.72.71,1.18.17.46.26.97.26,1.54s-.08,1.07-.25,1.54-.4.86-.71,1.2c-.3.33-.66.59-1.08.78-.42.18-.88.28-1.38.28s-.97-.09-1.39-.28c-.42-.18-.78-.44-1.08-.77-.3-.33-.54-.73-.71-1.19s-.25-.98-.25-1.55.08-1.09.26-1.55.41-.85.71-1.18c.31-.32.67-.58,1.08-.75.42-.18.88-.27,1.38-.27ZM160.39,143.92c.42,0,.8-.07,1.15-.22.35-.14.66-.35.91-.63.26-.28.46-.62.6-1.02s.21-.87.21-1.38-.07-.98-.22-1.38c-.14-.4-.34-.73-.6-1.01-.25-.27-.56-.48-.9-.62s-.73-.21-1.14-.21-.81.07-1.16.21-.66.35-.91.62c-.26.27-.46.61-.6,1-.14.4-.22.86-.22,1.37s.07.98.21,1.38.34.75.59,1.02c.25.28.56.49.91.63.35.14.74.22,1.15.22Z"/>
            <path d="M160.4,144.73c-.54,0-1.04-.1-1.5-.3-.45-.2-.85-.48-1.18-.84-.33-.36-.58-.79-.76-1.29-.18-.49-.27-1.04-.27-1.64s.09-1.15.27-1.64c.18-.49.44-.92.77-1.27.33-.35.73-.63,1.18-.82.9-.38,2.05-.38,2.96,0,.46.19.85.47,1.18.82.33.35.58.78.77,1.27.18.49.27,1.04.27,1.63s-.09,1.14-.27,1.63c-.18.5-.44.93-.76,1.29-.33.36-.72.64-1.17.84-.45.2-.95.3-1.49.3ZM160.42,137.73c-.38,0-.74.06-1.06.19-.31.13-.59.31-.82.55-.23.24-.41.55-.54.91-.13.37-.2.8-.2,1.28s.07.92.2,1.29c.13.37.31.68.54.93.23.25.5.44.81.56.63.26,1.46.26,2.1,0,.31-.13.59-.32.81-.57.23-.25.41-.56.54-.93.13-.37.2-.81.2-1.29s-.07-.92-.2-1.29c-.13-.36-.31-.67-.54-.91-.23-.24-.5-.43-.8-.55-.31-.13-.66-.19-1.04-.19ZM157.46,139.28c-.14.41-.22.88-.22,1.39,0,.44.05.85.16,1.22-.1-.37-.15-.78-.15-1.22,0-.51.07-.98.21-1.39ZM163.41,139.52c.09.35.13.73.13,1.15s-.04.78-.12,1.12c.09-.35.14-.72.14-1.12s-.05-.8-.14-1.15Z"/>
          </g>
          <g>
            <path d="M172.51,142.28c0,.66-.22,1.16-.67,1.51-.44.35-1.1.52-1.96.52h-2.64v-7.26h2.63c.73,0,1.29.14,1.68.41.39.28.58.72.58,1.32,0,.17-.02.34-.05.52-.03.18-.09.35-.18.5s-.21.29-.36.41c-.15.12-.35.21-.6.26.34.03.61.1.82.22s.36.26.48.43c.11.17.19.35.23.55s.06.4.06.59ZM167.77,140.25h1.95c.65,0,1.12-.1,1.43-.31s.46-.56.46-1.05c0-.44-.14-.77-.42-.98s-.74-.32-1.36-.32h-2.05v2.67ZM167.77,143.79h2.1c1.37,0,2.06-.5,2.06-1.51,0-.26-.04-.49-.11-.68-.07-.19-.19-.35-.36-.47-.17-.12-.4-.21-.68-.27-.28-.06-.63-.09-1.06-.09h-1.96v3.01Z"/>
            <path d="M169.88,144.59h-2.91v-7.81h2.9c.78,0,1.4.16,1.83.47.46.33.69.85.69,1.55,0,.18-.02.38-.05.57-.04.21-.11.4-.21.59-.1.17-.23.32-.39.46.05.02.1.05.14.07.24.14.43.31.57.51.13.2.22.42.27.66.04.22.06.43.06.64,0,.74-.26,1.32-.77,1.73-.49.39-1.21.58-2.13.58ZM171.84,141.12c.1.11.18.25.23.39.08.22.12.48.12.77,0,.58-.21,1.24-1.02,1.57.19-.07.35-.16.49-.27.38-.3.56-.72.56-1.3,0-.17-.02-.35-.05-.54-.03-.17-.09-.31-.18-.45-.04-.06-.09-.12-.15-.17ZM168.04,143.52h1.83c1.6,0,1.78-.7,1.78-1.23,0-.23-.03-.42-.09-.58-.05-.14-.14-.25-.26-.34-.14-.1-.33-.18-.57-.23-.26-.06-.6-.08-1-.08h-1.68v2.47ZM170.05,140.51c.3.01.57.04.79.09.02,0,.03,0,.05.01l-.02-.25c-.23.08-.51.13-.83.15ZM168.04,139.97h1.68c.59,0,1.02-.09,1.27-.26.23-.16.34-.42.34-.82,0-.35-.1-.61-.32-.77-.23-.18-.64-.27-1.19-.27h-1.78v2.12ZM171.09,137.53c.09.04.18.09.25.15.22.16.37.38.45.64-.07-.28-.21-.49-.41-.64-.09-.06-.18-.11-.29-.16Z"/>
          </g>
          <g>
            <path d="M176.74,144.32h-.53v-7.26h.53v7.26Z"/>
            <rect x="175.94" y="136.78" width="1.08" height="7.81"/>
          </g>
          <g>
            <path d="M185.02,144.32h-4.28v-7.26h.53v6.73h3.75v.53Z"/>
            <polygon points="185.3 144.59 180.47 144.59 180.47 136.78 181.55 136.78 181.55 143.52 185.3 143.52 185.3 144.59"/>
          </g>
          <g>
            <path d="M189.1,144.32h-.53v-7.26h.53v7.26Z"/>
            <rect x="188.29" y="136.78" width="1.08" height="7.81"/>
          </g>
          <g>
            <path d="M198.33,144.32h-5.25v-7.26h5.07v.53h-4.54v2.69h4.25v.53h-4.25v2.98h4.72v.53Z"/>
            <polygon points="198.61 144.59 192.81 144.59 192.81 136.78 198.43 136.78 198.43 137.86 193.89 137.86 193.89 140 198.14 140 198.14 141.08 193.89 141.08 193.89 143.52 198.61 143.52 198.61 144.59"/>
          </g>
          <g>
            <path d="M207.66,144.32h-.58l-.72-1.93c-.07-.19-.15-.36-.24-.52-.09-.16-.19-.31-.3-.43s-.25-.22-.39-.29c-.15-.07-.32-.11-.52-.11h-2.54v3.28h-.53v-7.26h3.27c.31,0,.6.03.89.08.29.06.54.15.76.29.22.14.4.34.53.59.13.25.2.57.2.96,0,.24-.03.47-.09.68-.06.21-.15.4-.27.56-.12.17-.28.31-.46.42s-.41.2-.66.26c.14.11.25.21.34.31.09.1.16.2.23.31.06.11.12.23.17.36s.11.29.18.46l.75,1.98ZM202.36,140.51h2.52c.36,0,.67-.03.92-.08s.47-.14.63-.26c.17-.12.29-.28.37-.47.08-.19.12-.43.12-.72,0-.5-.16-.86-.47-1.07-.32-.21-.79-.32-1.42-.32h-2.67v2.93Z"/>
            <path d="M208.05,144.59h-1.17l-.79-2.11c-.07-.17-.14-.34-.22-.49-.07-.14-.16-.26-.26-.37-.09-.1-.2-.17-.31-.23-.11-.05-.25-.08-.4-.08h-2.27v3.28h-1.08v-7.81h3.54c.32,0,.64.03.94.09.32.06.61.17.86.33.26.17.47.4.63.69.15.29.23.66.23,1.09,0,.27-.03.52-.1.75-.07.24-.17.46-.31.65-.14.19-.32.36-.54.5-.08.05-.17.1-.27.14,0,0,0,0,0,0,.1.11.19.23.26.36.07.12.14.26.19.4l1.07,2.81ZM206.17,141.44c.07.09.13.19.18.3.04.08.08.16.12.25h0c-.05-.12-.1-.23-.15-.33-.04-.07-.09-.15-.15-.21ZM205.1,140.78c.16.02.3.06.43.12,0,0,.02,0,.03.01l-.19-.15c-.09,0-.17.01-.27.02ZM202.63,140.24h2.25c.34,0,.63-.02.87-.07.22-.04.39-.12.53-.21.13-.09.22-.21.28-.36.07-.16.1-.37.1-.61,0-.41-.12-.68-.35-.85-.27-.18-.69-.27-1.26-.27h-2.4v2.38ZM206.04,137.43c.22.06.4.14.56.25.39.27.59.7.59,1.3,0,.24-.03.46-.08.65,0-.02,0-.03.01-.05.05-.18.08-.39.08-.6,0-.34-.06-.62-.17-.83-.11-.21-.25-.37-.44-.48-.17-.1-.35-.18-.56-.23Z"/>
          </g>
        </g>
        <g>
          <path d="M193.11,127.8c3.32-.41,4.73-2.59,5.23-5.72v-49.87c-.09-1.26-.7-3.8-1.68-4.63-1.43-1.22-4.58-1.04-6.36-1.43l-.19-2.05,47.02-.02c.87.63.53,3.65.63,4.72.25,2.62.84,5.44.97,8.03.04.82.32,3.76-.65,3.97-.24.05-1.44-.18-1.56-.35-.43-.62-.96-3.72-1.32-4.71-2.88-8.04-7.02-9.13-15.07-9.5-2.87-.13-8.27-.35-10.97,0-.41.05-.74.09-.96.5l.22,27.03c.48.37,6.69.28,7.81.22,1.78-.09,4.43-.24,5.97-1.08,1.82-.98,2.49-2.66,2.66-4.64.16-1.86-.9-4.85,2.03-4.21l.4.33v22.14c-.49.59-1.45.37-2.15.33-.57-3.06.23-8.1-3.38-9.63-2.11-.89-10.22-1.1-12.6-.8-.34.04-.63.06-.86.35l-.18,30.39c.16.48.84.6,1.29.65,3.94.46,12.22.29,16.31,0,10.16-.71,14.32-9.18,16.71-17.95,1.18-.57,2.61-.59,2.62,1.03.02,2.03-.58,4.71-.73,6.82-.06.89.06,1.79,0,2.67-.25,3.21-.71,6.41-.83,9.63-.32.46-3.55.16-4.39.23-1.7.14-5.11.48-6.06,1.97-1.05,1.65-.37,3.14.23,4.84.59,1.69,1.55,3.58,2.26,5.28,5.68,13.66,12,27.07,17.62,40.76l.55.66.55-.67c4.66-12.07,10.29-23.79,15.02-35.82,1.05-2.68,3.57-8.68,3.54-11.3-.03-2.12-1.49-4.06-3.43-4.86-.93-.38-3.94-.67-4.36-.99-.6-.46-.32-2.51.84-2.33,5.76.39,12.1-.48,17.78,0,1.11.09,1.92.45,1.53,1.78-.24.85-2.62,1.25-3.46,1.66-2.24,1.08-3.66,3.24-4.95,5.26l-24.9,58.78c-.48.63-3.01.53-3.52.17l-25.93-59.69c-1.41-3.16-4.85-5.52-8.35-5.52h-25.06c-.61-.26-.47-2.43,0-2.43,1.32-.12,2.86.16,4.14,0Z"/>
          <path d="M115.15,130.23l.23-2.33c3.27-.22,7.89.49,9.38-3.27.67-1.7.79-4.78.87-6.67.65-15.47-.28-31.19-.32-46.65-.75-5.64-5-4.76-9.51-5.08-.53-.17-.52-1.29-.36-1.75.36-1.05,3.9-.57,4.96-.64,11.6-.71,31.21-2.9,41.2,3.54,10.77,6.94,9.2,21.88-2.17,27.22-1.07.5-2.75,1.12-3.89,1.46-.27.08-4.9.63-4.13,1.58,4.25,1.42,7.07,5.83,9.44,9.41,5.22,7.91,10.46,18.09,20.72,20.39,2.14.48,4.6-.26,3.65,2.8h-18.85c-.98,0-3.56-2.48-4.25-3.29-3.97-4.62-7.28-11.36-11-16.49-2.13-2.94-5.78-8.04-8.34-10.39-.36-.34-1.83-1.3-2.25-1.4-.64-.15-3.55-.26-4.34-.25-.29,0-.55.19-.84.2v23.23c0,.16.69,2.84.8,3.1.63,1.52,2.88,2.65,4.46,2.84,1.18.14,5.72-.31,6.19.43.37.58.22,2.03-.38,2.03h-31.26ZM135.34,66.13v29.43c0,.66,1.64.12,2.06.11,4.13-.06,8.83.1,12.78-1.33,11.14-4.04,10.48-24.49-1.27-27.67-3.16-.86-9.5-1.3-12.73-.92-.35.04-.63.03-.84.38Z"/>
          <path d="M312.55,194.45c-.76-.7-.84-1.79-.12-2.56,2.08-.34,5.7.26,7.17-1.59,1.23-1.55.32-3.25-.24-4.85-1.47-4.26-3.79-9.65-5.66-13.8-.33-.72-.69-1.8-1.62-1.79l-23.97.14c-.33.41-.62.86-.85,1.34-1.31,2.69-4.37,10.51-4.73,13.28-.65,5.04,2.49,6.8,6.93,7.38.25,1,.35,2.42-.98,2.46-5.45-.56-12.26.7-17.54,0-1.3-.17-1.48-1.93-.85-2.57.19-.2,2.61-.72,3.34-1.04,2.37-1.04,3.56-2.74,4.82-4.91l24.39-58.07c.63-1.26,2.21-1.44,2.92-.14l24.58,58.37c1.42,3.58,3.96,5.37,7.76,5.73.52.5.38,2.62-.3,2.62h-25.06ZM289.69,167.45h21.65c.25,0,.37-.48.32-.79-.07-.47-.98-2.49-1.25-3.15-2.63-6.47-5.33-12.99-8.08-19.41-.25-.58-1.59-3.9-1.94-3.89l-11.08,26.63c0,.22.2.55.37.61Z"/>
          <rect x="115.52" y="140.2" width="13.87" height="1.22"/>
          <rect x="208.93" y="140.2" width="13.87" height="1.22"/>
          <rect x="138.5" y="75.56" width="6.81" height="6.51"/>
          <rect x="138.5" y="83.28" width="6.81" height="6.57"/>
          <path d="M146.53,75.56h6.32v6.51s-6.32.04-6.32,0v-6.51Z"/>
          <rect x="146.53" y="83.28" width="6.32" height="6.57"/>
        </g>
      </g>
    </g>
  </g>
</svg>