<?xml version="1.0" encoding="UTF-8"?>
<svg id="Layer_2" data-name="Layer 2" xmlns="http://www.w3.org/2000/svg" viewBox="0 0 453.38 258.62">
  <defs>
    <style>
      .cls-1 {
        fill: none;
      }
    </style>
  </defs>
  <g id="Layer_1-2" data-name="Layer 1">
    <g>
      <rect class="cls-1" width="453.38" height="258.62"/>
      <g>
        <path d="M193.11,127.8c3.32-.41,4.73-2.59,5.23-5.72v-49.87c-.09-1.26-.7-3.8-1.68-4.63-1.43-1.22-4.58-1.04-6.36-1.43l-.19-2.05,47.02-.02c.87.63.53,3.65.63,4.72.25,2.62.84,5.44.97,8.03.04.82.32,3.76-.65,3.97-.24.05-1.44-.18-1.56-.35-.43-.62-.96-3.72-1.32-4.71-2.88-8.04-7.02-9.13-15.07-9.5-2.87-.13-8.27-.35-10.97,0-.41.05-.74.09-.96.5l.22,27.03c.48.37,6.69.28,7.81.22,1.78-.09,4.43-.24,5.97-1.08,1.82-.98,2.49-2.66,2.66-4.64.16-1.86-.9-4.85,2.03-4.21l.4.33v22.14c-.49.59-1.45.37-2.15.33-.57-3.06.23-8.1-3.38-9.63-2.11-.89-10.22-1.1-12.6-.8-.34.04-.63.06-.86.35l-.18,30.39c.16.48.84.6,1.29.65,3.94.46,12.22.29,16.31,0,10.16-.71,14.32-9.18,16.71-17.95,1.18-.57,2.61-.59,2.62,1.03.02,2.03-.58,4.71-.73,6.82-.06.89.06,1.79,0,2.67-.25,3.21-.71,6.41-.83,9.63-.32.46-3.55.16-4.39.23-1.7.14-5.11.48-6.06,1.97-1.05,1.65-.37,3.14.23,4.84.59,1.69,1.55,3.58,2.26,5.28,5.68,13.66,12,27.07,17.62,40.76l.55.66.55-.67c4.66-12.07,10.29-23.79,15.02-35.82,1.05-2.68,3.57-8.68,3.54-11.3-.03-2.12-1.49-4.06-3.43-4.86-.93-.38-3.94-.67-4.36-.99-.6-.46-.32-2.51.84-2.33,5.76.39,12.1-.48,17.78,0,1.11.09,1.92.45,1.53,1.78-.24.85-2.62,1.25-3.46,1.66-2.24,1.08-3.66,3.24-4.95,5.26l-24.9,58.78c-.48.63-3.01.53-3.52.17l-25.93-59.69c-1.41-3.16-4.85-5.52-8.35-5.52h-25.06c-.61-.26-.47-2.43,0-2.43,1.32-.12,2.86.16,4.14,0Z"/>
        <path d="M115.15,130.23l.23-2.33c3.27-.22,7.89.49,9.38-3.27.67-1.7.79-4.78.87-6.67.65-15.47-.28-31.19-.32-46.65-.75-5.64-5-4.76-9.51-5.08-.53-.17-.52-1.29-.36-1.75.36-1.05,3.9-.57,4.96-.64,11.6-.71,31.21-2.9,41.2,3.54,10.77,6.94,9.2,21.88-2.17,27.22-1.07.5-2.75,1.12-3.89,1.46-.27.08-4.9.63-4.13,1.58,4.25,1.42,7.07,5.83,9.44,9.41,5.22,7.91,10.46,18.09,20.72,20.39,2.14.48,4.6-.26,3.65,2.8h-18.85c-.98,0-3.56-2.48-4.25-3.29-3.97-4.62-7.28-11.36-11-16.49-2.13-2.94-5.78-8.04-8.34-10.39-.36-.34-1.83-1.3-2.25-1.4-.64-.15-3.55-.26-4.34-.25-.29,0-.55.19-.84.2v23.23c0,.16.69,2.84.8,3.1.63,1.52,2.88,2.65,4.46,2.84,1.18.14,5.72-.31,6.19.43.37.58.22,2.03-.38,2.03h-31.26ZM135.34,66.13v29.43c0,.66,1.64.12,2.06.11,4.13-.06,8.83.1,12.78-1.33,11.14-4.04,10.48-24.49-1.27-27.67-3.16-.86-9.5-1.3-12.73-.92-.35.04-.63.03-.84.38Z"/>
        <path d="M312.55,194.45c-.76-.7-.84-1.79-.12-2.56,2.08-.34,5.7.26,7.17-1.59,1.23-1.55.32-3.25-.24-4.85-1.47-4.26-3.79-9.65-5.66-13.8-.33-.72-.69-1.8-1.62-1.79l-23.97.14c-.33.41-.62.86-.85,1.34-1.31,2.69-4.37,10.51-4.73,13.28-.65,5.04,2.49,6.8,6.93,7.38.25,1,.35,2.42-.98,2.46-5.45-.56-12.26.7-17.54,0-1.3-.17-1.48-1.93-.85-2.57.19-.2,2.61-.72,3.34-1.04,2.37-1.04,3.56-2.74,4.82-4.91l24.39-58.07c.63-1.26,2.21-1.44,2.92-.14l24.58,58.37c1.42,3.58,3.96,5.37,7.76,5.73.52.5.38,2.62-.3,2.62h-25.06ZM289.69,167.45h21.65c.25,0,.37-.48.32-.79-.07-.47-.98-2.49-1.25-3.15-2.63-6.47-5.33-12.99-8.08-19.41-.25-.58-1.59-3.9-1.94-3.89l-11.08,26.63c0,.22.2.55.37.61Z"/>
        <rect x="115.52" y="140.2" width="13.87" height="1.22"/>
        <rect x="208.93" y="140.2" width="13.87" height="1.22"/>
        <rect x="138.5" y="75.56" width="6.81" height="6.51"/>
        <rect x="138.5" y="83.28" width="6.81" height="6.57"/>
        <path d="M146.53,75.56h6.32v6.51s-6.32.04-6.32,0v-6.51Z"/>
        <rect x="146.53" y="83.28" width="6.32" height="6.57"/>
      </g>
    </g>
  </g>
</svg>