<?xml version="1.0" encoding="UTF-8"?>
<svg id="Layer_2" data-name="Layer 2" xmlns="http://www.w3.org/2000/svg" viewBox="0 0 453.38 258.62">
  <defs>
    <style>
      .cls-1 {
        stroke-width: 5.09px;
      }

      .cls-1, .cls-2, .cls-3 {
        fill: none;
      }

      .cls-1, .cls-2, .cls-4 {
        stroke: #000;
        stroke-miterlimit: 10;
      }

      .cls-2 {
        stroke-width: 4.42px;
      }

      .cls-4 {
        stroke-width: .44px;
      }
    </style>
  </defs>
  <g id="Layer_1-2" data-name="Layer 1">
    <g>
      <rect class="cls-3" width="453.38" height="258.62"/>
      <g>
        <polygon points="174.67 120 179.06 120 180.97 134.15 208.28 134.15 208.28 62.2 197.47 61.76 197.47 56.98 227.15 56.98 227.15 61.76 217.31 62.2 217.31 134.15 227.15 134.82 227.15 139.54 174.67 139.54 174.67 120"/>
        <polygon points="272.36 112.57 267.43 112.57 266.06 126.72 239.87 126.72 239.87 55.07 249.56 54.58 249.56 49.79 221.65 49.79 221.65 54.58 231.49 55.07 231.49 126.72 221.65 127.38 221.65 132.11 272.36 132.11 272.36 112.57"/>
        <rect class="cls-1" x="154.43" y="30.86" width="137.76" height="127.17"/>
        <polygon points="152.39 177.08 172.51 177.08 172.51 181.86 165.05 181.86 165.05 206.32 159.52 206.32 159.52 181.86 152.39 181.86 152.39 177.08"/>
        <polygon points="227.93 206.32 210.18 206.32 210.18 177.08 215.71 177.08 215.71 201.54 227.93 201.54 227.93 206.32"/>
        <polygon points="250.93 206.32 233.18 206.32 233.18 177.08 238.71 177.08 238.71 201.54 250.93 201.54 250.93 206.32"/>
        <rect x="255.9" y="201.54" width="17.75" height="4.78"/>
        <rect x="255.9" y="190.14" width="15.34" height="4.78"/>
        <rect x="255.9" y="177.08" width="17.75" height="4.78"/>
        <path d="M193.79,177.16l-4.84.11-13.24,28.83,5.11-.11c5.83-10.34,16.69-7.68,16.69-7.68l3.1,7.93h5.75l-12.58-29.08ZM185.42,196.68l6.27-13.35,3.68,10.72c-4.3-.34-7.54.62-9.95,2.63Z"/>
        <path class="cls-2" d="M300.73,181.47s-14.57-8.65-17.97,2.63c-.23,3.08,1.42,6.16,8.26,6.94,5.38.64,10.13,1.56,9.95,7.08-.66,7.35-12.19,9.45-19.93,2.76"/>
        <path class="cls-4" d="M158.77,227.63v-9.81h1.44v9.81h-1.44ZM158.77,219.13v-1.31h6.49v1.31h-6.49ZM158.77,223.37v-1.31h5.25v1.31h-5.25ZM158.77,227.63v-1.31h6.49v1.31h-6.49Z"/>
        <path class="cls-4" d="M171.74,227.63v-9.81h1.82v9.81h-1.82ZM177.3,227.63l-3.57-7.46h-.8v-2.35h1.15l3.56,7.46h.44v2.35h-.79ZM177.82,227.63v-9.81h1.82v9.81h-1.82Z"/>
        <path class="cls-4" d="M186.67,219.13v-1.31h7.18v1.31h-7.18ZM189.54,227.63v-9.81h1.44v9.81h-1.44Z"/>
        <path class="cls-4" d="M213.79,227.63v-9.81h1.44v9.81h-1.44ZM213.79,219.13v-1.31h6.49v1.31h-6.49ZM213.79,223.37v-1.31h5.25v1.31h-5.25ZM213.79,227.63v-1.31h6.49v1.31h-6.49Z"/>
        <path class="cls-4" d="M226.85,227.63v-9.81h1.44v9.81h-1.44ZM228.12,224.59v-1.31h1.62c.75,0,1.33-.19,1.71-.56s.58-.92.58-1.65c0-.64-.19-1.12-.58-1.44-.39-.33-.96-.49-1.71-.49h-1.59v-1.31h1.59c1.23,0,2.16.27,2.79.82.63.55.95,1.36.95,2.42,0,1.16-.32,2.03-.95,2.63-.63.6-1.56.89-2.79.89h-1.62Z"/>
        <path class="cls-4" d="M241.17,227.63v-9.81h1.54v9.81h-1.54ZM242.6,223.9v-1.31h2.17c.59,0,1.04-.14,1.37-.44.33-.29.49-.7.49-1.22,0-.58-.16-1.02-.49-1.33-.33-.31-.78-.47-1.37-.47h-2.14l-.18-1.31h2.32c1.09,0,1.93.26,2.52.77.59.52.89,1.25.89,2.2s-.3,1.75-.89,2.29-1.44.81-2.52.81h-2.17ZM246.8,227.63l-2.35-4.61h1.63l2.5,4.61h-1.77Z"/>
        <path class="cls-4" d="M199.71,227.63v-9.81h1.54v9.81h-1.54ZM201.14,223.9v-1.31h2.17c.59,0,1.04-.14,1.37-.44.33-.29.49-.7.49-1.22,0-.58-.16-1.02-.49-1.33-.33-.31-.78-.47-1.37-.47h-2.14l-.18-1.31h2.32c1.09,0,1.93.26,2.52.77.59.52.89,1.25.89,2.2s-.3,1.75-.89,2.29-1.44.81-2.52.81h-2.17ZM205.34,227.63l-2.35-4.61h1.63l2.5,4.61h-1.77Z"/>
        <path class="cls-4" d="M255.27,227.63v-9.81h1.44v9.81h-1.44Z"/>
        <path class="cls-4" d="M265.9,227.77c-.56,0-1.08-.04-1.56-.13s-.94-.22-1.35-.4l.18-1.39c.51.22,1,.38,1.47.49.47.11.93.17,1.38.17.64,0,1.12-.11,1.44-.34.31-.23.47-.57.47-1.03,0-.58-.3-1.01-.9-1.28l-1.7-.77c-.67-.3-1.18-.67-1.54-1.1-.36-.43-.54-.96-.54-1.6,0-.86.26-1.52.77-1.99.52-.47,1.25-.7,2.19-.7.66,0,1.24.1,1.75.29.51.19.99.51,1.46.95l-.97.98c-.41-.33-.78-.57-1.14-.72s-.72-.22-1.1-.22c-.47,0-.84.11-1.1.34-.26.23-.39.57-.39,1.01,0,.32.09.58.26.78.17.2.42.38.75.54l1.44.68c.73.34,1.28.73,1.66,1.15.38.43.57.98.57,1.65,0,.89-.29,1.55-.87,2-.58.44-1.45.67-2.63.67Z"/>
        <path class="cls-4" d="M276.25,227.63v-9.81h1.44v9.81h-1.44ZM276.25,219.13v-1.31h6.49v1.31h-6.49ZM276.25,223.37v-1.31h5.25v1.31h-5.25ZM276.25,227.63v-1.31h6.49v1.31h-6.49Z"/>
        <path class="cls-4" d="M292.01,227.77c-.56,0-1.08-.04-1.56-.13s-.94-.22-1.35-.4l.18-1.39c.51.22,1,.38,1.47.49.47.11.93.17,1.38.17.64,0,1.12-.11,1.44-.34.31-.23.47-.57.47-1.03,0-.58-.3-1.01-.9-1.28l-1.7-.77c-.67-.3-1.18-.67-1.54-1.1-.36-.43-.54-.96-.54-1.6,0-.86.26-1.52.77-1.99.52-.47,1.25-.7,2.19-.7.66,0,1.24.1,1.75.29.51.19.99.51,1.46.95l-.97.98c-.41-.33-.78-.57-1.14-.72s-.72-.22-1.1-.22c-.47,0-.84.11-1.1.34-.26.23-.39.57-.39,1.01,0,.32.09.58.26.78.17.2.42.38.75.54l1.44.68c.73.34,1.28.73,1.66,1.15.38.43.57.98.57,1.65,0,.89-.29,1.55-.87,2-.58.44-1.45.67-2.63.67Z"/>
      </g>
    </g>
  </g>
</svg>